<mxfile host="app.diagrams.net" modified="2024-01-27T23:00:12.071Z" agent="Mozilla/5.0 (Windows NT 10.0; Win64; x64) AppleWebKit/537.36 (KHTML, like Gecko) Chrome/120.0.0.0 Safari/537.36" etag="jE947r52FAJqv-iFLaoO" version="23.0.2" type="google">
  <diagram name="Page-1" id="mRpNkwfDwGUl1233vo_g">
    <mxGraphModel grid="1" page="1" gridSize="10" guides="1" tooltips="1" connect="1" arrows="1" fold="1" pageScale="1" pageWidth="850" pageHeight="1400" math="0" shadow="0">
      <root>
        <mxCell id="0" />
        <mxCell id="1" parent="0" />
        <mxCell id="0AWETeoOABvwI1oSBxVy-1" value="" style="rounded=1;whiteSpace=wrap;html=1;fillColor=none;dashed=1;dashPattern=12 12;" vertex="1" parent="1">
          <mxGeometry x="325" y="243" width="200" height="410" as="geometry" />
        </mxCell>
        <mxCell id="0AWETeoOABvwI1oSBxVy-5" value="Initial Config of USART, DMA, and Interrupt for Bluetooth Receiver Interface" style="rounded=1;whiteSpace=wrap;html=1;" vertex="1" parent="1">
          <mxGeometry x="370" y="263" width="120" height="60" as="geometry" />
        </mxCell>
        <mxCell id="0AWETeoOABvwI1oSBxVy-11" value="Is Receive Data Register Full?" style="rhombus;whiteSpace=wrap;html=1;" vertex="1" parent="1">
          <mxGeometry x="365" y="453" width="130" height="80" as="geometry" />
        </mxCell>
        <mxCell id="0AWETeoOABvwI1oSBxVy-16" value="" style="endArrow=classic;html=1;rounded=0;exitX=0.5;exitY=1;exitDx=0;exitDy=0;" edge="1" parent="1" source="0AWETeoOABvwI1oSBxVy-11">
          <mxGeometry width="50" height="50" relative="1" as="geometry">
            <mxPoint x="625" y="603" as="sourcePoint" />
            <mxPoint x="430" y="573" as="targetPoint" />
          </mxGeometry>
        </mxCell>
        <mxCell id="0AWETeoOABvwI1oSBxVy-17" value="YES" style="text;html=1;strokeColor=none;fillColor=none;align=center;verticalAlign=middle;whiteSpace=wrap;rounded=0;" vertex="1" parent="1">
          <mxGeometry x="417.5" y="534" width="60" height="30" as="geometry" />
        </mxCell>
        <mxCell id="0AWETeoOABvwI1oSBxVy-18" value="STM32F0 triggers interrupt to force DMA to move data from RDR to queue" style="rounded=1;whiteSpace=wrap;html=1;" vertex="1" parent="1">
          <mxGeometry x="370" y="573" width="120" height="60" as="geometry" />
        </mxCell>
        <mxCell id="0AWETeoOABvwI1oSBxVy-30" value="" style="group" vertex="1" connectable="0" parent="1">
          <mxGeometry x="345" y="190" width="160" height="30" as="geometry" />
        </mxCell>
        <mxCell id="0AWETeoOABvwI1oSBxVy-27" value="&lt;b&gt;BLUETOOTH INTERFACE&lt;/b&gt;" style="text;html=1;strokeColor=none;fillColor=none;align=center;verticalAlign=middle;whiteSpace=wrap;rounded=0;" vertex="1" parent="0AWETeoOABvwI1oSBxVy-30">
          <mxGeometry width="160" height="30" as="geometry" />
        </mxCell>
        <mxCell id="0AWETeoOABvwI1oSBxVy-29" value="" style="rounded=0;whiteSpace=wrap;html=1;fillColor=none;" vertex="1" parent="0AWETeoOABvwI1oSBxVy-30">
          <mxGeometry width="160" height="30" as="geometry" />
        </mxCell>
        <mxCell id="vpgFrRGIij8dIq7em6Cl-5" value="" style="endArrow=classic;html=1;rounded=0;exitX=0.5;exitY=1;exitDx=0;exitDy=0;entryX=0.5;entryY=0;entryDx=0;entryDy=0;" edge="1" parent="1" source="0AWETeoOABvwI1oSBxVy-5" target="0AWETeoOABvwI1oSBxVy-11">
          <mxGeometry width="50" height="50" relative="1" as="geometry">
            <mxPoint x="382.5" y="503" as="sourcePoint" />
            <mxPoint x="432.5" y="453" as="targetPoint" />
          </mxGeometry>
        </mxCell>
        <mxCell id="vpgFrRGIij8dIq7em6Cl-8" value="" style="endArrow=classic;html=1;rounded=0;exitX=0;exitY=0.5;exitDx=0;exitDy=0;" edge="1" parent="1" source="0AWETeoOABvwI1oSBxVy-11">
          <mxGeometry width="50" height="50" relative="1" as="geometry">
            <mxPoint x="382.5" y="493" as="sourcePoint" />
            <mxPoint x="435" y="393" as="targetPoint" />
            <Array as="points">
              <mxPoint x="365" y="393" />
              <mxPoint x="385" y="393" />
            </Array>
          </mxGeometry>
        </mxCell>
        <mxCell id="vpgFrRGIij8dIq7em6Cl-10" value="NO" style="text;html=1;strokeColor=none;fillColor=none;align=center;verticalAlign=middle;whiteSpace=wrap;rounded=0;" vertex="1" parent="1">
          <mxGeometry x="345" y="433" width="60" height="30" as="geometry" />
        </mxCell>
        <mxCell id="vpgFrRGIij8dIq7em6Cl-13" value="" style="endArrow=classic;html=1;rounded=0;entryX=0;entryY=0.5;entryDx=0;entryDy=0;" edge="1" parent="1" target="0AWETeoOABvwI1oSBxVy-11">
          <mxGeometry width="50" height="50" relative="1" as="geometry">
            <mxPoint x="370" y="603" as="sourcePoint" />
            <mxPoint x="420" y="553" as="targetPoint" />
            <Array as="points">
              <mxPoint x="365" y="603" />
            </Array>
          </mxGeometry>
        </mxCell>
      </root>
    </mxGraphModel>
  </diagram>
</mxfile>
